<?xml version="1.0" encoding="UTF-8"?>
<svg width="512" height="512" viewBox="0 0 512 512" xmlns="http://www.w3.org/2000/svg">
  <defs>
    <linearGradient id="pinGrad" x1="0%" y1="0%" x2="0%" y2="100%">
      <stop offset="0%" stop-color="#4F7F3A"/>
      <stop offset="100%" stop-color="#1A412A"/>
    </linearGradient>
  </defs>

  <path d="M256 40 C170 40 104 106 104 192 C104 308 256 472 256 472 C256 472 408 308 408 192 C408 106 342 40 256 40Z"
        fill="url(#pinGrad)"/>

  <circle cx="256" cy="190" r="108" fill="white"/>

  <path d="M150 250 L220 145 L280 235 L330 170 L362 250 Z"
        fill="#1A412A"/>

  <path d="M208 163 L220 145 L232 163 L220 158 Z" fill="white"/>
  <path d="M318 186 L330 170 L342 186 L330 181 Z" fill="white"/>

  <polygon points="180,245 195,215 210,245" fill="#4F7F3A"/>
  <rect x="193" y="245" width="4" height="10" fill="#4F7F3A"/>

  <polygon points="300,245 315,215 330,245" fill="#4F7F3A"/>
  <rect x="313" y="245" width="4" height="10" fill="#4F7F3A"/>
</svg>
