<svg width="291" height="63" viewBox="0 0 291 63" fill="none" xmlns="http://www.w3.org/2000/svg">
<g clip-path="url(#clip0_610_1034)">
<path d="M19.0943 24.2707C18.0509 26.4944 17.2457 28.7678 16.7363 31.008L22.5203 34.3643L28.9041 38.076V29.9664L22.5203 26.2547L19.0943 24.2625V24.2707Z" fill="#49A864"/>
<path d="M30.8673 0C27.9752 0 25.1736 0.405065 22.5199 1.14906C9.53048 4.81118 0 16.8226 0 31.0578C0 45.2929 9.53048 57.3043 22.5281 60.9665C24.5739 61.5451 26.71 61.9171 28.9119 62.0576V54.0638C26.6936 53.7249 24.5246 53.1462 22.5281 52.2782C18.9624 50.7241 15.9307 48.2193 14.0575 44.4166C9.11969 34.3727 14.8051 20.8898 22.5281 12.1024C24.4588 9.90343 26.5128 8.0021 28.5668 6.52238L30.8344 4.88558L33.102 6.52238C38.7299 10.5896 44.3332 17.5501 47.3238 25.114L43.7827 27.1724C41.589 21.1957 37.5304 15.3263 32.8391 11.284V50.0876C42.3613 48.4012 45.8038 42.3748 45.5163 35.282L36.7663 40.366V35.8111L44.9412 31.0578L46.7487 30.0079L48.5972 28.9332C50.0022 34.2404 49.9611 39.6468 47.6195 44.4166C44.7193 50.319 39.001 53.0966 32.8473 54.0555V62.0659C48.9834 61.0491 61.7592 47.558 61.7592 31.066C61.7592 14.5741 47.9153 0 30.8673 0Z" fill="#49A864"/>
<path d="M16.1607 35.2324C15.9389 40.4652 17.7381 45.1358 22.528 47.8969C24.2534 48.8971 26.3649 49.6494 28.9118 50.0875V42.631L22.528 38.9193L16.1607 35.2241V35.2324Z" fill="#49A864"/>
<path d="M22.5286 18.3519C21.9782 19.1455 21.4523 19.9639 20.9512 20.7905L22.5286 21.7081L28.9124 25.4199V11.2178C26.5791 13.2183 24.4019 15.6652 22.5286 18.3519Z" fill="#49A864"/>
<path d="M283.327 13.9954H291L283.713 25.1553H276.59H276.039L279.876 31.0246L276.039 25.1553L276.327 24.7172L283.327 13.9954Z" fill="#49A864"/>
<path d="M153.039 48.0622H177.909V41.887H159.447V34.0667H174.795V27.8916H159.447V20.1705H177.909V13.9954H153.039V48.0622Z" fill="#FDFDFB"/>
<path d="M143.072 17.3599C141.922 16.2439 140.632 15.409 139.227 14.8468C137.814 14.2764 136.277 13.9954 134.626 13.9954H119.73V48.0622H126.139V37.2494H133.09L138.463 48.0622H145.594L139.679 36.1582C141.067 35.5465 142.283 34.7198 143.302 33.6782C144.321 32.6449 145.118 31.438 145.676 30.074C146.243 28.7017 146.531 27.222 146.531 25.6265C146.531 23.9649 146.235 22.4521 145.66 21.0881C145.077 19.7159 144.206 18.4759 143.055 17.3599H143.072ZM139.49 27.7262C139.235 28.3793 138.849 28.9662 138.331 29.487C137.838 30.0078 137.28 30.4046 136.672 30.6774C136.056 30.942 135.374 31.0742 134.634 31.0742H126.147V20.1705H134.634C135.382 20.1705 136.056 20.3028 136.672 20.5673C137.28 20.8319 137.838 21.2369 138.331 21.7577C138.849 22.2785 139.235 22.8737 139.49 23.5103C139.744 24.1633 139.868 24.866 139.868 25.6182C139.868 26.3705 139.753 27.0732 139.49 27.718V27.7262Z" fill="#FDFDFB"/>
<path d="M99.067 34.0668H106.379V40.0187C103.988 41.9283 101.548 42.879 99.067 42.879C97.4895 42.879 96.0189 42.5814 94.6632 42.0027C93.3076 41.4075 92.067 40.5395 90.9414 39.3822C89.8323 38.2249 89.0024 36.9435 88.4438 35.5465C87.8769 34.1494 87.5975 32.6366 87.5975 31.0246C87.5975 29.4126 87.8686 27.875 88.4109 26.4862C88.9532 25.0975 89.7665 23.8244 90.851 22.6671C91.9355 21.5097 93.1597 20.6335 94.54 20.0465C95.912 19.4596 97.4238 19.1703 99.067 19.1703C100.603 19.1703 102.049 19.4761 103.405 20.0879C104.769 20.6996 106.042 21.6255 107.234 22.8489L111.613 18.4924C109.871 16.7399 107.957 15.4255 105.862 14.5492C103.766 13.6647 101.499 13.2266 99.0587 13.2266C96.4625 13.2266 94.0881 13.6564 91.9191 14.5162C89.7501 15.3759 87.7947 16.6572 86.0611 18.3601C82.6269 21.766 80.918 25.9902 80.918 31.0329C80.918 36.0755 82.6762 40.2998 86.2008 43.7056C87.9837 45.4086 89.9473 46.6899 92.0916 47.5496C94.236 48.4011 96.5611 48.8392 99.067 48.8392C100.833 48.8392 102.534 48.583 104.169 48.0787C105.812 47.5827 107.332 46.8718 108.745 45.9459C110.158 45.0118 111.416 43.9123 112.525 42.6145V27.8998H99.0752V34.075L99.067 34.0668Z" fill="#FDFDFB"/>
<path d="M255.713 13.9954H249.305V48.0622H255.713V13.9954Z" fill="#FDFDFB"/>
<path d="M184.176 48.0622H209.045V41.887H190.584V34.0667H205.932V27.8916H190.584V20.1705H209.045V13.9954H184.176V48.0622Z" fill="#FDFDFB"/>
<path d="M279.877 31.0246L276.04 25.1553L268.752 13.9954H261.07L272.203 31.0246L261.07 48.0622H268.752L276.04 36.9022L283.327 48.0622H291.001L279.877 31.0246Z" fill="#FDFDFB"/>
<path d="M235.493 13.9954L235.542 33.7526H235.361L216.851 13.9954H215.314V48.0622H221.723L221.682 28.3049H221.863L240.373 48.0622H241.901V13.9954H238.697H235.493Z" fill="#FDFDFB"/>
</g>
<defs>
<clipPath id="clip0_610_1034">
<rect width="291" height="62.0576" fill="white"/>
</clipPath>
</defs>
</svg>
